<mxfile host="app.diagrams.net" agent="Mozilla/5.0 (Windows NT 10.0; Win64; x64) AppleWebKit/537.36 (KHTML, like Gecko) Chrome/133.0.0.0 Safari/537.36 Edg/133.0.0.0" version="26.0.16">
  <diagram name="第 1 页" id="9CP5qgqQks80VtOI7Ksx">
    <mxGraphModel dx="1285" dy="857" grid="1" gridSize="10" guides="1" tooltips="1" connect="1" arrows="1" fold="1" page="1" pageScale="1" pageWidth="827" pageHeight="1169" math="0" shadow="0">
      <root>
        <mxCell id="0" />
        <mxCell id="1" parent="0" />
        <mxCell id="cR2a-chws8owELgCWvcc-1" value="淘木客户需求管理（线上化）流程图" style="swimlane;childLayout=stackLayout;resizeParent=1;resizeParentMax=0;startSize=20;html=1;align=left;" vertex="1" parent="1">
          <mxGeometry width="694.9999999999995" height="880" as="geometry" />
        </mxCell>
        <mxCell id="cR2a-chws8owELgCWvcc-2" value="卖家（用户）" style="swimlane;startSize=20;html=1;" vertex="1" parent="cR2a-chws8owELgCWvcc-1">
          <mxGeometry y="20" width="170" height="860" as="geometry" />
        </mxCell>
        <mxCell id="cR2a-chws8owELgCWvcc-8" value="" style="edgeStyle=orthogonalEdgeStyle;rounded=0;orthogonalLoop=1;jettySize=auto;html=1;" edge="1" parent="cR2a-chws8owELgCWvcc-2" source="cR2a-chws8owELgCWvcc-6" target="cR2a-chws8owELgCWvcc-7">
          <mxGeometry relative="1" as="geometry" />
        </mxCell>
        <mxCell id="cR2a-chws8owELgCWvcc-6" value="开始" style="strokeWidth=2;html=1;shape=mxgraph.flowchart.start_2;whiteSpace=wrap;" vertex="1" parent="cR2a-chws8owELgCWvcc-2">
          <mxGeometry x="60" y="40" width="50" height="50" as="geometry" />
        </mxCell>
        <mxCell id="cR2a-chws8owELgCWvcc-40" value="" style="edgeStyle=orthogonalEdgeStyle;rounded=0;orthogonalLoop=1;jettySize=auto;html=1;" edge="1" parent="cR2a-chws8owELgCWvcc-2" source="cR2a-chws8owELgCWvcc-7" target="cR2a-chws8owELgCWvcc-25">
          <mxGeometry relative="1" as="geometry" />
        </mxCell>
        <mxCell id="cR2a-chws8owELgCWvcc-7" value="1. 发布需求" style="whiteSpace=wrap;html=1;strokeWidth=2;" vertex="1" parent="cR2a-chws8owELgCWvcc-2">
          <mxGeometry x="25" y="165" width="120" height="60" as="geometry" />
        </mxCell>
        <mxCell id="cR2a-chws8owELgCWvcc-28" value="" style="edgeStyle=orthogonalEdgeStyle;rounded=0;orthogonalLoop=1;jettySize=auto;html=1;" edge="1" parent="cR2a-chws8owELgCWvcc-2" source="cR2a-chws8owELgCWvcc-25" target="cR2a-chws8owELgCWvcc-27">
          <mxGeometry relative="1" as="geometry" />
        </mxCell>
        <mxCell id="cR2a-chws8owELgCWvcc-25" value="2. 匹配需求" style="whiteSpace=wrap;html=1;strokeWidth=2;" vertex="1" parent="cR2a-chws8owELgCWvcc-2">
          <mxGeometry x="24.999999999999545" y="330" width="120" height="60" as="geometry" />
        </mxCell>
        <mxCell id="cR2a-chws8owELgCWvcc-35" value="" style="edgeStyle=orthogonalEdgeStyle;rounded=0;orthogonalLoop=1;jettySize=auto;html=1;" edge="1" parent="cR2a-chws8owELgCWvcc-2" source="cR2a-chws8owELgCWvcc-27" target="cR2a-chws8owELgCWvcc-34">
          <mxGeometry relative="1" as="geometry" />
        </mxCell>
        <mxCell id="cR2a-chws8owELgCWvcc-38" value="匹配成功" style="edgeLabel;html=1;align=center;verticalAlign=middle;resizable=0;points=[];" vertex="1" connectable="0" parent="cR2a-chws8owELgCWvcc-35">
          <mxGeometry x="-0.4833" y="-1" relative="1" as="geometry">
            <mxPoint as="offset" />
          </mxGeometry>
        </mxCell>
        <mxCell id="cR2a-chws8owELgCWvcc-27" value="2.2 是否匹配" style="rhombus;whiteSpace=wrap;html=1;strokeWidth=2;" vertex="1" parent="cR2a-chws8owELgCWvcc-2">
          <mxGeometry x="44.999999999999545" y="460" width="80" height="80" as="geometry" />
        </mxCell>
        <mxCell id="cR2a-chws8owELgCWvcc-34" value="2.3 是否生成订单" style="rhombus;whiteSpace=wrap;html=1;strokeWidth=2;" vertex="1" parent="cR2a-chws8owELgCWvcc-2">
          <mxGeometry x="44.999999999999545" y="580" width="80" height="80" as="geometry" />
        </mxCell>
        <mxCell id="cR2a-chws8owELgCWvcc-3" value="淘木运营后台" style="swimlane;startSize=20;html=1;" vertex="1" parent="cR2a-chws8owELgCWvcc-1">
          <mxGeometry x="170" y="20" width="180" height="860" as="geometry" />
        </mxCell>
        <mxCell id="cR2a-chws8owELgCWvcc-14" value="2.1 核实" style="strokeWidth=2;html=1;shape=mxgraph.flowchart.decision;whiteSpace=wrap;" vertex="1" parent="cR2a-chws8owELgCWvcc-3">
          <mxGeometry x="39.999999999999545" y="145" width="100" height="100" as="geometry" />
        </mxCell>
        <mxCell id="cR2a-chws8owELgCWvcc-13" value="淘木商城" style="swimlane;startSize=20;html=1;" vertex="1" parent="cR2a-chws8owELgCWvcc-1">
          <mxGeometry x="350" y="20" width="170" height="860" as="geometry" />
        </mxCell>
        <mxCell id="cR2a-chws8owELgCWvcc-44" value="" style="edgeStyle=orthogonalEdgeStyle;rounded=0;orthogonalLoop=1;jettySize=auto;html=1;entryX=0.5;entryY=0;entryDx=0;entryDy=0;" edge="1" parent="cR2a-chws8owELgCWvcc-13" source="cR2a-chws8owELgCWvcc-18" target="cR2a-chws8owELgCWvcc-36">
          <mxGeometry relative="1" as="geometry">
            <mxPoint x="84.99999999999955" y="300" as="targetPoint" />
          </mxGeometry>
        </mxCell>
        <mxCell id="cR2a-chws8owELgCWvcc-18" value="2.4供求中心展示" style="whiteSpace=wrap;html=1;strokeWidth=2;" vertex="1" parent="cR2a-chws8owELgCWvcc-13">
          <mxGeometry x="24.999999999999545" y="165" width="120" height="60" as="geometry" />
        </mxCell>
        <mxCell id="cR2a-chws8owELgCWvcc-50" value="" style="edgeStyle=orthogonalEdgeStyle;rounded=0;orthogonalLoop=1;jettySize=auto;html=1;" edge="1" parent="cR2a-chws8owELgCWvcc-13" source="cR2a-chws8owELgCWvcc-36" target="cR2a-chws8owELgCWvcc-49">
          <mxGeometry relative="1" as="geometry" />
        </mxCell>
        <mxCell id="cR2a-chws8owELgCWvcc-36" value="3. 订单管理" style="whiteSpace=wrap;html=1;strokeWidth=2;" vertex="1" parent="cR2a-chws8owELgCWvcc-13">
          <mxGeometry x="24.999999999999545" y="590" width="120" height="60" as="geometry" />
        </mxCell>
        <mxCell id="cR2a-chws8owELgCWvcc-49" value="结束" style="ellipse;whiteSpace=wrap;html=1;strokeWidth=2;" vertex="1" parent="cR2a-chws8owELgCWvcc-13">
          <mxGeometry x="44.999999999999545" y="720" width="80" height="80" as="geometry" />
        </mxCell>
        <mxCell id="cR2a-chws8owELgCWvcc-4" value="木管家ERP" style="swimlane;startSize=20;html=1;" vertex="1" parent="cR2a-chws8owELgCWvcc-1">
          <mxGeometry x="520" y="20" width="174.99999999999955" height="860" as="geometry" />
        </mxCell>
        <mxCell id="cR2a-chws8owELgCWvcc-46" value="" style="edgeStyle=orthogonalEdgeStyle;rounded=0;orthogonalLoop=1;jettySize=auto;html=1;" edge="1" parent="cR2a-chws8owELgCWvcc-4" source="cR2a-chws8owELgCWvcc-41" target="cR2a-chws8owELgCWvcc-45">
          <mxGeometry relative="1" as="geometry" />
        </mxCell>
        <mxCell id="cR2a-chws8owELgCWvcc-53" value="成单" style="edgeLabel;html=1;align=center;verticalAlign=middle;resizable=0;points=[];" vertex="1" connectable="0" parent="cR2a-chws8owELgCWvcc-46">
          <mxGeometry x="-0.2326" relative="1" as="geometry">
            <mxPoint as="offset" />
          </mxGeometry>
        </mxCell>
        <mxCell id="cR2a-chws8owELgCWvcc-41" value="2.5 商机管理" style="whiteSpace=wrap;html=1;strokeWidth=2;" vertex="1" parent="cR2a-chws8owELgCWvcc-4">
          <mxGeometry x="27.499999999999545" y="250" width="120" height="60" as="geometry" />
        </mxCell>
        <mxCell id="cR2a-chws8owELgCWvcc-45" value="2.6 转销售订单" style="whiteSpace=wrap;html=1;strokeWidth=2;" vertex="1" parent="cR2a-chws8owELgCWvcc-4">
          <mxGeometry x="27.499999999999545" y="390" width="120" height="60" as="geometry" />
        </mxCell>
        <mxCell id="cR2a-chws8owELgCWvcc-10" value="" style="edgeStyle=orthogonalEdgeStyle;rounded=0;orthogonalLoop=1;jettySize=auto;html=1;" edge="1" parent="cR2a-chws8owELgCWvcc-1" source="cR2a-chws8owELgCWvcc-7" target="cR2a-chws8owELgCWvcc-14">
          <mxGeometry relative="1" as="geometry">
            <mxPoint x="180" y="215" as="targetPoint" />
          </mxGeometry>
        </mxCell>
        <mxCell id="cR2a-chws8owELgCWvcc-21" value="" style="edgeStyle=orthogonalEdgeStyle;rounded=0;orthogonalLoop=1;jettySize=auto;html=1;" edge="1" parent="cR2a-chws8owELgCWvcc-1" source="cR2a-chws8owELgCWvcc-14" target="cR2a-chws8owELgCWvcc-18">
          <mxGeometry relative="1" as="geometry" />
        </mxCell>
        <mxCell id="cR2a-chws8owELgCWvcc-22" value="核实需求" style="edgeLabel;html=1;align=center;verticalAlign=middle;resizable=0;points=[];" vertex="1" connectable="0" parent="cR2a-chws8owELgCWvcc-21">
          <mxGeometry x="-0.2218" relative="1" as="geometry">
            <mxPoint as="offset" />
          </mxGeometry>
        </mxCell>
        <mxCell id="cR2a-chws8owELgCWvcc-31" style="edgeStyle=orthogonalEdgeStyle;rounded=0;orthogonalLoop=1;jettySize=auto;html=1;entryX=0;entryY=0.5;entryDx=0;entryDy=0;entryPerimeter=0;" edge="1" parent="cR2a-chws8owELgCWvcc-1" source="cR2a-chws8owELgCWvcc-27" target="cR2a-chws8owELgCWvcc-14">
          <mxGeometry relative="1" as="geometry">
            <mxPoint x="354.99999999999955" y="520" as="targetPoint" />
            <Array as="points">
              <mxPoint x="190" y="520" />
              <mxPoint x="190" y="215" />
            </Array>
          </mxGeometry>
        </mxCell>
        <mxCell id="cR2a-chws8owELgCWvcc-39" value="匹配失败，发&lt;br&gt;布到供求中心" style="edgeLabel;html=1;align=center;verticalAlign=middle;resizable=0;points=[];" vertex="1" connectable="0" parent="cR2a-chws8owELgCWvcc-31">
          <mxGeometry x="0.033" y="1" relative="1" as="geometry">
            <mxPoint as="offset" />
          </mxGeometry>
        </mxCell>
        <mxCell id="cR2a-chws8owELgCWvcc-37" style="edgeStyle=orthogonalEdgeStyle;rounded=0;orthogonalLoop=1;jettySize=auto;html=1;" edge="1" parent="cR2a-chws8owELgCWvcc-1" source="cR2a-chws8owELgCWvcc-34" target="cR2a-chws8owELgCWvcc-36">
          <mxGeometry relative="1" as="geometry" />
        </mxCell>
        <mxCell id="cR2a-chws8owELgCWvcc-54" value="成功" style="edgeLabel;html=1;align=center;verticalAlign=middle;resizable=0;points=[];" vertex="1" connectable="0" parent="cR2a-chws8owELgCWvcc-37">
          <mxGeometry x="-0.2064" y="1" relative="1" as="geometry">
            <mxPoint as="offset" />
          </mxGeometry>
        </mxCell>
        <mxCell id="cR2a-chws8owELgCWvcc-42" style="edgeStyle=orthogonalEdgeStyle;rounded=0;orthogonalLoop=1;jettySize=auto;html=1;exitX=1;exitY=0.5;exitDx=0;exitDy=0;exitPerimeter=0;" edge="1" parent="cR2a-chws8owELgCWvcc-1" source="cR2a-chws8owELgCWvcc-14" target="cR2a-chws8owELgCWvcc-41">
          <mxGeometry relative="1" as="geometry">
            <Array as="points">
              <mxPoint x="320" y="215" />
              <mxPoint x="320" y="110" />
              <mxPoint x="587" y="110" />
            </Array>
          </mxGeometry>
        </mxCell>
        <mxCell id="cR2a-chws8owELgCWvcc-52" value="未匹配到转人工商机" style="edgeLabel;html=1;align=center;verticalAlign=middle;resizable=0;points=[];" vertex="1" connectable="0" parent="cR2a-chws8owELgCWvcc-42">
          <mxGeometry x="0.0136" y="1" relative="1" as="geometry">
            <mxPoint as="offset" />
          </mxGeometry>
        </mxCell>
        <mxCell id="cR2a-chws8owELgCWvcc-48" value="" style="edgeStyle=orthogonalEdgeStyle;rounded=0;orthogonalLoop=1;jettySize=auto;html=1;entryX=1;entryY=0.5;entryDx=0;entryDy=0;exitX=0.5;exitY=1;exitDx=0;exitDy=0;" edge="1" parent="cR2a-chws8owELgCWvcc-1" source="cR2a-chws8owELgCWvcc-45" target="cR2a-chws8owELgCWvcc-36">
          <mxGeometry relative="1" as="geometry">
            <mxPoint x="587.4999999999995" y="550" as="targetPoint" />
          </mxGeometry>
        </mxCell>
        <mxCell id="cR2a-chws8owELgCWvcc-58" value="" style="edgeStyle=orthogonalEdgeStyle;rounded=0;orthogonalLoop=1;jettySize=auto;html=1;entryX=0;entryY=0.5;entryDx=0;entryDy=0;dashed=1;" edge="1" parent="cR2a-chws8owELgCWvcc-1" source="cR2a-chws8owELgCWvcc-14" target="cR2a-chws8owELgCWvcc-49">
          <mxGeometry relative="1" as="geometry">
            <mxPoint x="259.99999999999955" y="365" as="targetPoint" />
            <Array as="points">
              <mxPoint x="260" y="780" />
            </Array>
          </mxGeometry>
        </mxCell>
        <mxCell id="cR2a-chws8owELgCWvcc-59" value="无需求" style="edgeLabel;html=1;align=center;verticalAlign=middle;resizable=0;points=[];" vertex="1" connectable="0" parent="cR2a-chws8owELgCWvcc-58">
          <mxGeometry x="-0.1544" relative="1" as="geometry">
            <mxPoint as="offset" />
          </mxGeometry>
        </mxCell>
      </root>
    </mxGraphModel>
  </diagram>
</mxfile>
